<svg width="18" height="10" fill="none" xmlns="http://www.w3.org/2000/svg">
  <path d="M9 5.56c1.22 0 2.3.3 3.18.68a2.24 2.24 0 011.32 2.04V9.5h-9V8.3c0-.9.51-1.7 1.32-2.06A7.83 7.83 0 019 5.57zm-6 .19c.83 0 1.5-.67 1.5-1.5s-.67-1.5-1.5-1.5-1.5.67-1.5 1.5.67 1.5 1.5 1.5zm.85.83a5.24 5.24 0 00-2.94.35A1.5 1.5 0 000 8.33V9.5h3.38V8.3c0-.63.17-1.22.47-1.73zM15 5.75c.82 0 1.5-.67 1.5-1.5s-.68-1.5-1.5-1.5-1.5.67-1.5 1.5.68 1.5 1.5 1.5zm3 2.57c0-.6-.36-1.15-.91-1.39a5.21 5.21 0 00-2.94-.35c.3.5.47 1.09.47 1.71V9.5H18V8.32zM9 .5A2.25 2.25 0 119 5 2.25 2.25 0 019 .5z" fill="#86BD24"/>
</svg>